<?xml version="1.0" encoding="UTF-8"?>
<svg id="Camada_2" data-name="Camada 2" xmlns="http://www.w3.org/2000/svg" viewBox="0 0 359.8 234.56">
  <defs>
    <style>
      .cls-1 {
        fill: #14002a;
      }

      .cls-2 {
        fill: #5b2e95;
      }
    </style>
  </defs>
  <g id="Camada_1-2" data-name="Camada 1">
    <g>
      <path class="cls-1" d="M359.8,156.9v44.3s-13.09-.01-13.09-.01v-32.66s-25.02,0-25.02,0c-2.86,0-4.6,1.78-4.93,4.66v10.37c0,1.58.58,3.26,1.54,4.46.76.95,2.06,1.2,3.23,1.34h19.22s0,11.84,0,11.84h-22.68c-8-.06-14.31-6.93-14.33-14.61l-.03-17.03c0-3.62,1.47-6.83,4.24-9.19,2.57-2.18,5.89-3.64,9.45-3.64l42.39.18Z"/>
      <path class="cls-1" d="M359.8,233.81v.48h-2.57s-1.23-4.03-1.23-4.03h-6.55s-1.16,4.05-1.16,4.05l-2.48-.06,5.6-17.23c1-.11,1.89-.11,2.83.04l5.57,16.76ZM355.35,228.08l-2.62-8.73-2.62,8.77,5.24-.04Z"/>
      <path class="cls-2" d="M207.83,109.55c6.74-1.68,12.46-4.55,18.64-8.13-6.8,7.91-15.2,14.45-24.69,19-15.98,7.66-34.93,9.14-50.83.92-14.61-7.56-22.45-21.96-22.48-38.38V18.67s30.94,0,30.94,0v59.5c.08,12.38,5.57,23.17,16.58,28.91,9.65,5.03,21.22,5.26,31.85,2.47Z"/>
      <path class="cls-1" d="M58.25,138.9l12.47-.02-.04,51.78c0,2.61-.9,5.27-2.69,7-2.35,2.27-5.6,3.49-8.97,3.49l-46.23.03c-6.33,0-11.99-3.58-12.74-10.2v-52.1s13.08.03,13.08.03v46.42c.3,2.24,1.52,4.02,3.89,4.02h37.72c1.55,0,2.78-.79,3.13-2.25.24-1,.38-2.03.38-3.18v-45Z"/>
      <path class="cls-1" d="M138.71,168.52v-11.84s22.7.03,22.7.03c7.99,0,14.3,6.89,14.31,14.86l.02,16.86c0,3.54-1.53,6.66-4.14,9.01-2.97,2.65-6.63,3.75-10.66,3.75h-41.19s0-66.74,0-66.74h13s0,54.9,0,54.9h25.27c2.71,0,4.28-1.87,4.69-4.5l.05-9.55c.02-3.46-1.22-6.76-4.67-6.76l-19.36-.02Z"/>
      <path class="cls-1" d="M194.09,183.14c0,1.7.5,3.4,1.38,4.67.74,1.08,2.05,1.37,3.31,1.55h19.32s0,11.84,0,11.84h-23.09c-7.48-.4-13.47-6.32-13.83-13.93l-.11-17.7c-.02-3.26,1.22-6.07,3.39-8.45,2.83-2.72,6.51-4.42,10.6-4.42h42s0,44.5,0,44.5h-13s0-32.67,0-32.67h-25.41c-1.94.01-3.33,1.11-4.07,2.77-.26.94-.52,2.04-.52,3.03l.03,8.81Z"/>
      <path class="cls-2" d="M218.97,98.21c-6.1,3.75-12.79,5.84-19.9,6.62v-35.98s30.92-40.77,30.92-40.77l.02,55.31c-.22,2.92-1.35,5.32-3,7.62-2.17,2.94-4.84,5.15-8.05,7.2Z"/>
      <polygon class="cls-2" points="199.12 59.43 199 40.71 175.74 40.68 206.59 0 206.71 18.69 229.99 18.71 199.12 59.43"/>
      <path class="cls-1" d="M93.69,168.44c-3.34.15-4.64,3.07-4.64,6.4v26.35s-13,0-13,0v-30.41c.29-7.88,6.32-13.94,14.2-14.17h24.17s0,11.82,0,11.82h-20.72Z"/>
      <path class="cls-1" d="M285.4,201.19v-26.1c-.18-3.52-.99-6.18-4.53-6.55l-19.5.02-.02-11.87h22.85c8.04.32,13.82,6.56,14.18,14.56v29.94s-12.98,0-12.98,0Z"/>
      <rect class="cls-1" x="242.4" y="156.68" width="12.99" height="44.51"/>
      <path class="cls-1" d="M12.98,221.07l-4.15,9.57c-.61.07-1.37.06-1.92-.05l-4.01-9.63-.62,13.3-2.28.05.2-3.15.16-4.28.46-9.93,2.75.06,4.46,10.73,4.5-10.75h2.63s.81,17.27.81,17.27h-2.35s-.63-13.19-.63-13.19Z"/>
      <path class="cls-1" d="M61.04,229.13c.15,2.46-1.24,4.25-3.49,4.92-2.43.73-5.01.56-7.57.17v-17.22c4.17-.57,9.35-.61,9.93,3.38.29,1.99-.52,3.8-2.61,4.66,2.13.29,3.61,1.81,3.74,4.09ZM54.91,224.13c1.34-.04,2.36-.94,2.55-2.11.17-1.09-.04-2.39-1.23-2.92s-2.56-.49-3.82-.37v5.48s2.51-.08,2.51-.08ZM56.85,232c1.5-.59,1.8-2.14,1.54-3.41s-1.39-2.26-2.85-2.31l-3.15-.11v6.18c1.42.11,3.03.19,4.45-.37Z"/>
      <path class="cls-1" d="M171.01,228.83c-1.51,5.82-7.35,6.22-12.89,5.4v-17.23c5.74-.71,11.14-.47,12.85,5.39.5,2.08.51,4.23.04,6.43ZM168.45,222.99c-.51-2.09-2.11-3.87-4.26-3.92l-3.63-.09v13.27c1.4.1,2.68.12,3.99-.12,4-.72,4.83-5.33,3.9-9.15Z"/>
      <path class="cls-1" d="M127.03,230.21c-2.18,4.6-7.47,4.72-12.43,4.05v-17.25c5.54-.62,10.59-.6,12.64,4.74.85,2.74.82,5.64-.2,8.46ZM124.95,223.08c-.48-2.1-2.04-3.64-4.18-3.99l-3.73-.06v13.3s3.5-.1,3.5-.1c3.91-.11,5.43-4.77,4.42-9.14Z"/>
      <path class="cls-1" d="M33.02,234.55c-3.16.07-5.73-1.58-6.74-4.45s-1.01-6.17.05-9.04,3.44-4.29,6.33-4.36c3.12-.07,5.78,1.6,6.77,4.64.91,2.79.91,5.85-.02,8.65s-3.33,4.49-6.39,4.56ZM37.02,229.17c.67-2.3.64-4.73.05-6.93s-2.24-3.42-4.28-3.39-3.57,1.22-4.16,3.28c-1.21,4.27-.41,10.24,4.16,10.3,1.94.03,3.62-1.12,4.24-3.27Z"/>
      <path class="cls-1" d="M296.36,226.28l3.09-1.49c1.48-1.4,1.73-3.92.04-5.25-1.15-.91-2.8-.87-4.15-.62v15.28s-2.45.07-2.45.07v-17.27s5.87-.1,5.87-.1c1.73.27,3.19,1.21,4.01,2.69,1.32,2.98-.1,6.16-3.21,7.35l5.02,7.3h-2.76s-5.48-7.96-5.48-7.96Z"/>
      <path class="cls-1" d="M145.52,230.26h-6.56s-1.16,3.99-1.16,3.99l-2.51.04,5.59-17.25c.93-.12,1.84-.13,2.83-.03l5.57,17.18c-.8.13-1.7.14-2.58.06l-1.18-3.99ZM144.87,228.12l-2.65-8.64-2.62,8.64h5.27Z"/>
      <polygon class="cls-1" points="262.95 226.21 257.27 226.2 257.25 232.1 264.49 232.11 264.52 234.28 254.81 234.27 254.81 217 264.32 217 264.33 219.13 257.26 219.13 257.26 224.07 262.92 224.07 262.95 226.21"/>
      <polygon class="cls-1" points="189.29 226.19 183.59 226.21 183.59 232.11 190.82 232.11 190.85 234.27 181.14 234.27 181.14 217 190.62 216.99 190.65 219.13 183.6 219.13 183.58 224.05 189.21 224.07 189.29 226.19"/>
      <polygon class="cls-1" points="225.63 226.2 219.97 226.21 219.97 232.11 227.21 232.11 227.19 234.28 217.52 234.27 217.52 217 227 217 227 219.13 219.97 219.13 219.97 224.07 225.63 224.07 225.63 226.2"/>
      <path class="cls-1" d="M328.78,228.62c1.04,3.7,5.04,4.54,8.67,3.09l.66,1.96c-4.72,1.97-10.26.71-11.83-4.27-.78-2.45-.76-5.04.02-7.5,1.57-4.93,6.7-6.17,11.55-4.53l-.6,1.96c-3.53-1.07-7.08-.59-8.3,2.83-.73,2.06-.77,4.32-.18,6.45Z"/>
      <polygon class="cls-1" points="279.39 234.24 276.94 234.26 276.93 219.13 272.42 219.14 272.43 216.99 283.92 217.01 283.92 219.12 279.38 219.15 279.39 234.24"/>
      <polygon class="cls-1" points="92.66 232.08 92.64 234.28 83.46 234.27 83.46 217 85.88 217.01 85.88 232.09 92.66 232.08"/>
      <polygon class="cls-1" points="245.87 232.09 245.87 234.28 236.67 234.27 236.66 216.99 239.08 216.95 239.08 232.07 245.87 232.09"/>
      <rect class="cls-1" x="313.46" y="216.9" width="2.45" height="17.45"/>
      <rect class="cls-1" x="70.51" y="216.91" width="2.44" height="17.43"/>
      <rect class="cls-1" x="101.62" y="216.91" width="2.45" height="17.43"/>
      <polygon class="cls-1" points="259.97 215.58 257.35 215.58 259.87 212.93 263.09 212.95 259.97 215.58"/>
    </g>
  </g>
</svg>